# xmcd
#
# Track frame offsets: 
# 150
# 6155
# 24336
# 39362
# 62137
# 79319
# 104856
# 127628
# 144361
# 164740
# 182829
#
# Disc length: 2590 seconds
# Submitted via: tkcNetwork 1.0
# Revision: 0
# Processed by: cddbd v1.5.1PL0 Copyright (c) Steve Scherf et al.
#
DISCID=8f0a1c0b
DTITLE=Dreamtone - Unforeseen Reflections
DYEAR=1900
DGENRE=
TTITLE0=Blind Man
TTITLE1=Roots
TTITLE2=War of Worlds
TTITLE3=Pre-arranged Overture
TTITLE4=This Flickering Light
TTITLE5=Thus It Ends in Misery
TTITLE6=A Faith Collapsed
TTITLE7=The Sacrifice
TTITLE8=Circus of Circumstances
TTITLE9=The Last Breath
TTITLE10=The Dawn
EXTD=
EXTT0=
EXTT1=
EXTT2=
EXTT3=
EXTT4=
EXTT5=
EXTT6=
EXTT7=
EXTT8=
EXTT9=
EXTT10=
PLAYORDER=
